HIERARCHY
ROOT Hips
{
 OFFSET 0.000000 0.000000 0.000000
 CHANNELS 6 Xposition Yposition Zposition Yrotation Xrotation Zrotation
 JOINT Chest
 {
  OFFSET 0.000000 14.374500 -0.011500
  CHANNELS 3 Yrotation Xrotation Zrotation
  JOINT Chest2
  {
   OFFSET 0.000000 9.203400 0.023400
   CHANNELS 3 Yrotation Xrotation Zrotation
   JOINT Chest3
   {
    OFFSET 0.000000 9.162700 0.000000
    CHANNELS 3 Yrotation Xrotation Zrotation
    JOINT Chest4
    {
     OFFSET 0.000000 9.153300 0.000000
     CHANNELS 3 Yrotation Xrotation Zrotation
     JOINT Neck
     {
      OFFSET 0.000000 13.353600 0.000000
      CHANNELS 3 Yrotation Xrotation Zrotation
      JOINT Head
      {
       OFFSET 0.000000 8.573800 0.049400
       CHANNELS 3 Yrotation Xrotation Zrotation
       End Site
       {
        OFFSET 0.000000 16.219200 0.026100
       }
      }
     }
     JOINT RightCollar
     {
      OFFSET -2.497100 8.876100 0.000000
      CHANNELS 3 Yrotation Xrotation Zrotation
      JOINT RightShoulder
      {
       OFFSET -12.289200 0.000000 0.000000
       CHANNELS 3 Yrotation Xrotation Zrotation
       JOINT RightElbow
       {
        OFFSET 0.000000 -28.194900 0.000000
        CHANNELS 3 Yrotation Xrotation Zrotation
        JOINT RightWrist
        {
         OFFSET 0.000000 -23.009700 0.007900
         CHANNELS 3 Yrotation Xrotation Zrotation
         End Site
         {
          OFFSET 0.000000 -17.151500 0.000000
         }
        }
       }
      }
     }
     JOINT LeftCollar
     {
      OFFSET 2.497100 8.876100 0.000000
      CHANNELS 3 Yrotation Xrotation Zrotation
      JOINT LeftShoulder
      {
       OFFSET 12.289200 0.000000 0.000000
       CHANNELS 3 Yrotation Xrotation Zrotation
       JOINT LeftElbow
       {
        OFFSET 0.000000 -28.194900 0.000000
        CHANNELS 3 Yrotation Xrotation Zrotation
        JOINT LeftWrist
        {
         OFFSET 0.000000 -23.009700 0.007900
         CHANNELS 3 Yrotation Xrotation Zrotation
         End Site
         {
          OFFSET 0.000000 -17.151500 0.000000
         }
        }
       }
      }
     }
    }
   }
  }
 }
 JOINT RightHip
 {
  OFFSET -11.777600 0.056700 0.005700
  CHANNELS 3 Yrotation Xrotation Zrotation
  JOINT RightKnee
  {
   OFFSET 0.000000 -39.966000 -0.004200
   CHANNELS 3 Yrotation Xrotation Zrotation
   JOINT RightAnkle
   {
    OFFSET 0.000000 -41.981900 0.027400
    CHANNELS 3 Yrotation Xrotation Zrotation
    JOINT RightToe
    {
     OFFSET 0.000000 -9.910600 16.950100
     CHANNELS 3 Yrotation Xrotation Zrotation
     End Site
     {
      OFFSET 0.000000 -1.461000 6.191600
     }
    }
   }
  }
 }
 JOINT LeftHip
 {
  OFFSET 11.777600 0.056700 0.005700
  CHANNELS 3 Yrotation Xrotation Zrotation
  JOINT LeftKnee
  {
   OFFSET 0.000000 -39.966000 -0.004200
   CHANNELS 3 Yrotation Xrotation Zrotation
   JOINT LeftAnkle
   {
    OFFSET 0.000000 -41.981900 0.027400
    CHANNELS 3 Yrotation Xrotation Zrotation
    JOINT LeftToe
    {
     OFFSET 0.000000 -9.910600 16.950100
     CHANNELS 3 Yrotation Xrotation Zrotation
     End Site
     {
      OFFSET 0.000000 -1.461000 6.191600
     }
    }
   }
  }
 }
}
MOTION
Frames: 15
Frame Time: 0.008333
0.000000 91.618700 0.000000 0.000000 -5.767877 0.000000 0.000000 11.653817 0.000000 0.000000 -5.885947 0.000000 0.000000 -0.000000 0.000000 0.000000 -0.000000 0.000000 0.000000 12.528835 0.000000 0.000000 0.711642 0.000000 0.000000 -0.000000 0.000000 0.000000 0.000000 -90.000000 0.000000 -2.309062 0.000000 0.000000 2.309062 0.000000 0.000000 -0.000000 0.000000 0.000000 -0.000000 90.000000 0.000000 -2.309062 0.000000 0.000000 2.309062 0.000000 0.000000 8.520406 0.000000 0.000000 1.905762 0.000000 -0.000000 -4.658285 0.000000 0.000000 -0.000000 0.000000 0.000000 8.520406 0.000000 0.000000 1.905762 0.000000 -0.000000 -4.658285 0.000000 0.000000 -0.000000 0.000000
-3.465123 152.661654 75.653878 170.911887 -46.919479 -2.813440 5.856393 29.517002 4.380100 0.887626 5.742927 0.643788 1.423179 8.953839 1.048113 4.276115 23.511091 3.388329 -0.327015 11.387413 -1.734709 0.069835 -13.711178 -1.775251 3.176731 -5.546839 1.057810 11.168543 -13.726027 -12.589354 2.668407 -78.436686 20.330835 16.507714 19.097940 -24.985981 -12.157659 -7.202955 -0.940276 -5.900757 -17.075580 9.519775 15.151087 -59.106888 -51.774143 -12.466661 -4.622391 36.806024 7.223838 -31.543288 4.091210 -71.371736 86.059604 -73.247680 2.004078 -23.844556 9.152394 0.058467 -0.241005 0.087649 5.304330 -21.163757 -0.383506 146.816463 69.793327 157.454102 1.560683 -19.496188 -7.502164 0.141824 -4.905132 -0.415253
-3.541932 145.624798 76.433790 171.060289 -46.883126 -3.048295 5.819886 29.473180 4.518630 0.889445 5.743144 0.644674 1.419076 8.954505 1.048928 4.274788 23.510380 3.392981 -0.318467 11.376364 -1.755697 0.074579 -13.729736 -1.790250 3.187214 -5.540078 1.050845 11.172174 -13.724214 -12.598530 2.533382 -78.492611 20.481321 16.526240 19.047428 -25.074289 -12.138063 -7.198954 -0.950976 -5.922149 -17.064538 9.506402 15.215465 -59.144614 -51.815589 -12.410115 -4.758906 36.847027 7.056878 -31.616382 4.242649 -71.899545 86.059104 -73.774165 2.025647 -23.946566 9.160996 0.033558 -0.155212 0.019615 5.132871 -21.193502 -0.256432 146.788978 69.816489 157.437319 1.621636 -19.416364 -7.494328 0.072319 0.102328 0.042298
-3.613489 139.831218 77.072888 171.160843 -46.863197 -3.192108 5.788400 29.452658 4.595875 0.888841 5.742727 0.645316 1.420072 8.949629 1.048654 4.276283 23.510352 3.396217 -0.317958 11.363651 -1.767995 0.078451 -13.748190 -1.805191 3.193498 -5.523545 1.049600 11.161555 -13.730149 -12.604445 2.315184 -78.541515 20.719012 16.565069 18.981166 -25.137815 -12.132704 -7.193965 -0.955709 -5.932678 -17.052066 9.490799 15.271318 -59.188136 -51.837762 -12.338598 -4.891062 36.866891 6.955695 -31.663604 4.334154 -72.377088 86.059576 -74.259981 2.017474 -24.028098 9.185127 0.016328 -0.084422 0.009543 5.011044 -21.204038 -0.178044 146.812247 69.840463 157.459776 1.605990 -19.353510 -7.448064 0.021378 0.062822 0.012503
-3.669292 135.647701 77.532961 171.209946 -46.854479 -3.262630 5.772612 29.441936 4.631310 0.889448 5.741583 0.646234 1.420219 8.945891 1.049735 4.278345 23.514097 3.398435 -0.316102 11.345696 -1.779045 0.076498 -13.746263 -1.806046 3.194551 -5.517795 1.049972 11.146731 -13.725008 -12.607014 2.040534 -78.590641 21.012174 16.624250 18.904695 -25.182261 -12.129262 -7.189847 -0.958560 -5.926495 -17.018702 9.447223 15.402534 -59.289211 -51.884102 -12.263228 -4.963243 36.819275 6.908489 -31.690140 4.384589 -72.711796 86.061541 -74.604943 2.001518 -24.072542 9.197386 0.006648 -0.048802 0.003887 4.935356 -21.204913 -0.138496 146.850643 69.859134 157.491715 1.613408 -19.317169 -7.457143 0.010749 0.036993 0.006286
-3.702103 133.004570 77.825200 171.252993 -46.843029 -3.327562 5.759462 29.426455 4.665468 0.887799 5.735180 0.645440 1.422250 8.948397 1.051756 4.283034 23.512449 3.401268 -0.317234 11.331723 -1.791078 0.075023 -13.742650 -1.806092 3.193506 -5.504726 1.051450 11.136645 -13.724889 -12.609947 1.753566 -78.637208 21.305036 16.696420 18.819356 -25.218646 -12.122551 -7.175976 -0.969065 -5.934780 -17.014079 9.443125 15.526594 -59.321864 -51.957079 -12.183328 -5.059425 36.779699 6.860618 -31.714504 4.434331 -72.927784 86.067089 -74.849518 1.994418 -24.112656 9.214188 -0.012874 -0.019730 -0.007526 4.850561 -21.214878 -0.104165 146.893144 69.867571 157.532589 1.632628 -19.281314 -7.498421 0.013679 0.009963 0.007999
-3.722378 131.551694 77.984865 171.264059 -46.842578 -3.345579 5.753053 29.421495 4.673302 0.891793 5.734186 0.645866 1.422655 8.946720 1.051510 4.282806 23.504488 3.401262 -0.321846 11.300498 -1.806654 0.075814 -13.734374 -1.806250 3.197541 -5.476591 1.059403 11.122993 -13.731797 -12.618732 1.542260 -78.677827 21.521461 16.762759 18.710854 -25.261824 -12.126210 -7.150304 -0.971161 -5.929914 -17.013821 9.432742 15.714092 -59.340690 -52.075968 -12.106912 -5.117012 36.688013 6.858313 -31.720138 4.461537 -73.089983 86.053142 -75.016644 1.986370 -24.125083 9.218642 -0.008677 -0.010503 -0.005073 4.826890 -21.213590 -0.093465 146.897386 69.873371 157.539700 1.622564 -19.268870 -7.504720 0.010834 0.002841 0.006334
-3.732759 130.859982 78.060916 171.269777 -46.843555 -3.352627 5.752606 29.416170 4.676770 0.892965 5.735330 0.645535 1.423161 8.945026 1.051193 4.281115 23.508631 3.403906 -0.323373 11.290863 -1.810637 0.068036 -13.800018 -1.829251 3.205165 -5.437428 1.080059 11.088131 -13.729969 -12.644195 1.479310 -78.730307 21.607939 16.809671 18.571040 -25.321371 -12.116741 -7.117674 -0.984891 -5.941935 -17.018591 9.421250 15.958346 -59.355882 -52.228064 -12.041304 -5.123120 36.528737 6.861580 -31.720979 4.480005 -73.174652 86.043181 -75.108590 1.972875 -24.132018 9.224288 -0.006599 -0.006074 -0.003858 4.813724 -21.209563 -0.091380 146.900231 69.878877 157.543708 1.612951 -19.263489 -7.498233 0.008488 0.001019 0.004963
-3.737784 130.576932 78.092285 171.273719 -46.844020 -3.354911 5.750883 29.414344 4.676733 0.897338 5.734623 0.643804 1.424087 8.943656 1.051215 4.280320 23.503267 3.403240 -0.327757 11.287879 -1.809430 0.065667 -13.808140 -1.830945 3.205824 -5.412919 1.093359 11.070954 -13.726242 -12.648125 1.097199 -78.844687 21.958467 16.910856 18.524987 -25.316720 -12.114603 -7.087709 -0.992693 -5.925904 -16.993389 9.365564 16.210046 -59.380866 -52.385612 -11.990621 -5.076314 36.308234 6.865413 -31.719633 4.494559 -73.195319 86.034721 -75.141363 1.958731 -24.135727 9.234616 -0.007692 -0.003897 -0.004497 4.808013 -21.206964 -0.092281 146.903736 69.882171 157.547940 1.603635 -19.262513 -7.490789 0.005203 0.001837 0.003042
-3.739419 130.478483 78.103633 171.275133 -46.844589 -3.357844 5.757331 29.412787 4.679144 0.899531 5.734626 0.644270 1.425789 8.942860 1.051408 4.293029 23.497135 3.401686 -0.344713 11.271459 -1.804779 0.062836 -13.805718 -1.827936 3.197670 -5.381548 1.113288 11.047177 -13.731303 -12.650127 0.833486 -78.936244 22.199220 16.996869 18.468889 -25.324710 -12.131621 -7.066926 -0.986859 -5.925707 -16.997366 9.362013 16.604976 -59.333320 -52.673676 -11.953991 -4.985199 36.043499 6.870499 -31.719857 4.509836 -73.243922 86.019473 -75.193841 1.950814 -24.135128 9.240996 -0.004935 -0.003454 -0.002885 4.803361 -21.205054 -0.091208 146.907372 69.882785 157.550993 1.605006 -19.263027 -7.489969 0.002730 0.003419 0.001596
-3.741098 130.449413 78.107443 171.276201 -46.843593 -3.356421 5.767310 29.409766 4.678757 0.897894 5.734376 0.644924 1.427797 8.942472 1.051865 4.298614 23.496122 3.403680 -0.353366 11.249456 -1.807969 0.047771 -13.881198 -1.842490 3.199925 -5.346236 1.127344 11.018961 -13.744472 -12.654806 0.607317 -79.016399 22.399129 17.070779 18.420680 -25.337630 -12.142274 -7.050984 -0.985311 -5.886672 -16.983768 9.317245 16.975405 -59.306206 -52.954608 -11.927758 -4.865213 35.749452 6.879683 -31.722443 4.514074 -73.292576 86.009761 -75.244561 1.947358 -24.133875 9.246879 -0.003880 -0.003666 -0.002269 4.803581 -21.207273 -0.103445 146.893137 69.884023 157.544876 1.600877 -19.254291 -7.480927 0.000928 0.002284 0.000542
-3.741271 130.442330 78.109044 171.278691 -46.843055 -3.360947 5.770801 29.408278 4.681250 0.905360 5.733175 0.643912 1.429681 8.941900 1.052645 4.304140 23.494755 3.406574 -0.365076 11.225862 -1.810682 0.041200 -13.912962 -1.842283 3.196363 -5.314228 1.139403 10.993137 -13.754109 -12.656526 0.337465 -79.092928 22.631224 17.137379 18.427841 -25.307313 -12.147731 -7.018036 -0.996559 -5.782040 -16.964976 9.248248 17.281384 -59.313367 -53.231893 -11.905944 -4.732559 35.439800 6.882640 -31.722984 4.527194 -73.266393 85.997834 -75.226135 1.949756 -24.130632 9.249779 -0.003259 -0.004063 -0.001905 4.803110 -21.209512 -0.102635 146.891801 69.885925 157.547312 1.603222 -19.249767 -7.477995 -0.000469 0.001532 -0.000274
-3.740509 130.441206 78.109915 171.294669 -46.843946 -3.378651 5.774935 29.405665 4.691593 0.906714 5.734799 0.641710 1.428976 8.941394 1.054818 4.308472 23.493333 3.408604 -0.370710 11.197227 -1.812570 0.034247 -13.912751 -1.836468 3.192960 -5.279806 1.150375 10.972732 -13.770444 -12.658350 0.009877 -79.156299 22.908463 17.210126 18.357352 -25.339752 -12.149036 -6.979231 -1.012956 -5.694914 -16.959517 9.210850 17.619245 -59.313596 -53.534055 -11.884925 -4.601362 35.129315 6.876901 -31.719935 4.554948 -73.267776 85.978529 -75.237534 1.946669 -24.128817 9.249355 0.003941 -0.004465 0.002304 4.793277 -21.209304 -0.095587 146.897180 69.888995 157.556901 1.606326 -19.248726 -7.475220 -0.001079 0.003177 -0.000631
-3.741586 130.440756 78.110703 171.301288 -46.843345 -3.382162 5.782913 29.405373 4.690833 0.906503 5.733093 0.641929 1.422613 8.941633 1.059877 4.309998 23.492759 3.409132 -0.368674 11.150547 -1.826694 0.023976 -13.942356 -1.827170 3.192555 -5.262307 1.155074 10.965188 -13.781405 -12.660015 -0.396651 -79.199281 23.248313 17.273657 18.263198 -25.374092 -12.146308 -6.937410 -1.026927 -5.616966 -16.962000 9.180603 17.958973 -59.320791 -53.829345 -11.863159 -4.480665 34.825003 6.875097 -31.720586 4.562712 -73.252916 85.974349 -75.233291 1.938277 -24.125329 9.254952 0.004078 -0.005101 0.002384 4.792038 -21.210160 -0.094343 146.901228 69.894519 157.563275 1.607001 -19.246680 -7.473655 0.000604 0.003292 0.000353
-3.743029 130.440526 78.111403 171.307284 -46.843309 -3.383670 5.787549 29.404364 4.687663 0.906009 5.733137 0.642931 1.425802 8.939966 1.056926 4.314883 23.491422 3.406688 -0.374580 11.136675 -1.815197 0.022923 -14.001977 -1.832309 3.184238 -5.244869 1.173531 10.948799 -13.770048 -12.653543 -0.848848 -79.262421 23.624499 17.332376 18.171315 -25.380383 -12.148968 -6.887439 -1.029521 -5.540488 -16.962161 9.150774 18.269750 -59.351287 -54.100374 -11.840145 -4.371985 34.520652 6.873697 -31.720277 4.563999 -73.232035 85.968539 -75.221731 1.937117 -24.120998 9.262342 0.002792 -0.005624 0.001632 4.789093 -21.210731 -0.096024 146.901615 69.900068 157.564378 1.607297 -19.242628 -7.472657 0.002098 0.002574 0.001227
